# xmcd
#
# Track frame offsets:
# 150
# 25429
# 39299
# 68853
# 71749
# 95448
# 110988
# 142107
# 158303
# 173778
# 195507
# 225213
# 264317
#
# Disc length: 3541 seconds
#
#
# Revision: 3
# Processed by: cddbd v1.5.2PL0 Copyright (c) Steve Scherf et al.
# Submitted via: FreeRIP 2.11 
#
DISCID=aa0dd30d
DTITLE=Micah Stampley - the Songbook of Micah
DYEAR=2005
DGENRE=Gospel
TTITLE0=Worthy To Be Praised
TTITLE1=He's Great
TTITLE2=The Well
TTITLE3=Come Holy Spirit (Intro)
TTITLE4=Come Holy Spirit
TTITLE5=I Need Thee
TTITLE6=We Need The Glory
TTITLE7=I Am Redeemed
TTITLE8=Sing
TTITLE9=War Cry
TTITLE10=At Your Heart's Door
TTITLE11=Take My Life
TTITLE12=Daten-CD
EXTD=
EXTT0=
EXTT1=
EXTT2=
EXTT3=
EXTT4=
EXTT5=
EXTT6=
EXTT7=
EXTT8=
EXTT9=
EXTT10=
EXTT11=
EXTT12=
PLAYORDER=
